{"title":"indochine-college-boy-officiel_music.mp4","uid":9813265,"size":37360575,"categoryP":"audio","categoryS":"sound_clips","magnet":"?xt=urn:btih:6f8e438c659e4af237ef3cbc36a7bc8772103ffd&amp;dn=indochine-college-boy-officiel_music.mp4&amp;tr=udp%3A%2F%2Ftracker.openbittorrent.com%3A80&amp;tr=udp%3A%2F%2Fopen.demonii.com%3A1337&amp;tr=udp%3A%2F%2Ftracker.coppersurfer.tk%3A6969&amp;tr=udp%3A%2F%2Fexodus.desync.com%3A6969","seeders":0,"leechers":2,"uploader":"Machtnix","files":1,"time":1395532860,"description":"indochine-college-boy-officiel_music.mp4\nFormat                                   : MPEG-4\nFormat profile                           : Base Media\nCodec ID                                 : isom\nFile size                                : 35.6 MiB\nDuration                                 : 5mn 59s\nOverall bit rate mode                    : Variable\nOverall bit rate                         : 833 Kbps\nTagged date                              : UTC 2013-05-03 06:46:10\nWriting application                      : Lavf54.59.106\n\nVideo\nID                                       : 1\nFormat                                   : AVC\nFormat/Info                              : Advanced Video Codec\nFormat profile                           : &lt;a class=&quot;__cf_email__&quot; href=&quot;/cdn-cgi/l/email-protection&quot; data-cfemail=&quot;3971505e5179750a1709&quot;&gt;[email&amp;#160;protected]&lt;/a&gt;&lt;script cf-hash='f9e31' type=&quot;text/javascript&quot;&gt;\n/* &lt;![CDATA[ */!function(){try{var t=&quot;currentScript&quot;in document?document.currentScript:function(){for(var t=document.getElementsByTagName(&quot;script&quot;),e=t.length;e--;)if(t[e].getAttribute(&quot;cf-hash&quot;))return t[e]}();if(t&amp;&amp;t.previousSibling){var e,r,n,i,c=t.previousSibling,a=c.getAttribute(&quot;data-cfemail&quot;);if(a){for(e=&quot;&quot;,r=parseInt(a.substr(0,2),16),n=2;a.length-n;n+=2)i=parseInt(a.substr(n,2),16)^r,e+=String.fromCharCode(i);e=document.createTextNode(e),c.parentNode.replaceChild(e,c)}}}catch(u){}}();/* ]]&gt; */&lt;/script&gt;\nFormat settings, CABAC                   : Yes\nFormat settings, ReFrames                : 4 frames\nCodec ID                                 : avc1\nCodec ID/Info                            : Advanced Video Coding\nDuration                                 : 5mn 58s\nBit rate                                 : 698 Kbps\nWidth                                    : 512 pixels\nHeight                                   : 480 pixels\nDisplay aspect ratio                     : 1.067\nFrame rate mode                          : Constant\nFrame rate                               : 25.000 fps\nColor space                              : YUV\nChroma subsampling                       : 4:2:0\nBit depth                                : 8 bits\nScan type                                : Progressive\nBits/(Pixel*Frame)                       : 0.114\nStream size                              : 29.9 MiB (84%)\nWriting library                          : x264 core 130\n\nAudio\nID                                       : 2\nFormat                                   : AAC\nFormat/Info                              : Advanced Audio Codec\nFormat profile                           : LC\nCodec ID                                 : 40\nDuration                                 : 5mn 59s\nDuration_LastFrame                       : -1ms\nBit rate mode                            : Variable\nBit rate                                 : 128 Kbps\nMaximum bit rate                         : 800 Kbps\nChannel(s)                               : 2 channels\nChannel positions                        : Front: L R\nSampling rate                            : 44.1 KHz\nCompression mode                         : Lossy\nDelay relative to video                  : 80ms\nStream size                              : 5.48 MiB (15%)\n\n","torrent":{"xt":"urn:btih:6f8e438c659e4af237ef3cbc36a7bc8772103ffd","amp;dn":"indochine-college-boy-officiel_music.mp4","amp;tr":["udp%3A%2F%2Ftracker.openbittorrent.com%3A80","udp%3A%2F%2Fopen.demonii.com%3A1337","udp%3A%2F%2Ftracker.coppersurfer.tk%3A6969","udp%3A%2F%2Fexodus.desync.com%3A6969"],"infoHash":"6f8e438c659e4af237ef3cbc36a7bc8772103ffd","infoHashBuffer":{"type":"Buffer","data":[111,142,67,140,101,158,74,242,55,239,60,188,54,167,188,135,114,16,63,253]},"announce":[],"urlList":[]}}